<svg version="1.1" id="Layer_1" xmlns="http://www.w3.org/2000/svg" xmlns:xlink="http://www.w3.org/1999/xlink" x="0px" y="0px"
	 width="100%" viewBox="0 0 4001 2251" enable-background="new 0 0 4001 2251" xml:space="preserve">
<path fill="#FFFFFF" opacity="1.000000" stroke="none" 
	d="
M2388.000000,2254.000000 
	C1592.000244,2254.000000 797.000488,2254.000000 2.000533,2254.000000 
	C2.000355,1503.333740 2.000355,752.667603 2.000178,2.001037 
	C1335.999146,2.000691 2669.998291,2.000691 4003.998047,2.000346 
	C4003.998535,752.665588 4003.998535,1503.331177 4003.999268,2253.998535 
	C3465.666748,2254.000000 2927.333252,2254.000000 2388.000000,2254.000000 
M2436.260742,1150.704224 
	C2471.409424,1082.693359 2487.444092,1009.953979 2489.600098,933.852539 
	C2489.881592,923.925781 2488.523926,913.963806 2488.388428,904.011841 
	C2488.025879,877.327209 2484.182861,851.066284 2478.862793,825.011414 
	C2469.693848,780.105713 2454.356201,737.362549 2433.207764,696.687256 
	C2406.665771,645.639282 2371.985352,600.735657 2329.523926,562.118408 
	C2276.300293,513.713013 2215.053955,479.063995 2145.908691,458.623138 
	C2110.364258,448.115417 2074.016113,442.142242 2037.089478,440.428986 
	C2010.858276,439.211975 1984.581055,440.194366 1958.437500,443.469971 
	C1910.552490,449.469543 1864.611328,462.318909 1820.892944,482.723694 
	C1766.031860,508.329285 1717.775879,543.095032 1676.057251,587.128967 
	C1638.128906,627.162170 1607.989746,672.243713 1585.351807,722.429443 
	C1561.896973,774.426270 1548.070190,828.809814 1543.422363,885.739624 
	C1540.730591,918.709595 1540.971680,951.567444 1544.592041,984.289856 
	C1549.212402,1026.051147 1559.259277,1066.691650 1574.466309,1105.925903 
	C1582.011719,1125.393188 1590.056519,1144.676758 1601.244385,1162.484741 
	C1597.239624,1149.184082 1592.590332,1136.112183 1588.483521,1122.871826 
	C1575.926880,1082.388916 1568.620972,1040.842773 1566.587036,998.605957 
	C1564.941284,964.430786 1566.521851,930.272034 1571.504517,896.236145 
	C1579.277100,843.141907 1594.651123,792.501282 1618.175293,744.378479 
	C1642.349976,694.925354 1674.012939,650.801758 1713.316772,612.110352 
	C1746.802368,579.146301 1784.269531,551.791077 1826.187500,530.696350 
	C1868.078247,509.615326 1912.276001,495.833191 1958.869263,489.447266 
	C2000.046631,483.803619 2041.064331,484.305054 2081.968750,490.877625 
	C2126.950684,498.105438 2169.629639,512.514832 2210.013428,533.732178 
	C2258.561768,559.238831 2301.047363,592.534851 2337.525879,633.361267 
	C2368.961426,668.543518 2394.645996,707.592896 2414.951660,750.282959 
	C2443.594971,810.502197 2459.497314,873.978149 2463.354980,940.313293 
	C2464.778564,964.790222 2463.242432,989.488342 2462.184570,1014.048035 
	C2460.864990,1044.681885 2454.984863,1074.672241 2446.986572,1104.219727 
	C2443.001953,1118.940308 2438.372314,1133.486328 2433.202393,1149.196411 
	C2430.930908,1155.151001 2428.659668,1161.105713 2426.388428,1167.060425 
	C2426.970215,1167.282104 2427.552002,1167.503784 2428.133789,1167.725586 
	C2430.560059,1162.430786 2432.986572,1157.135986 2436.260742,1150.704224 
M2444.476562,1571.666260 
	C2448.750000,1556.749023 2453.023193,1541.831909 2457.360352,1526.691772 
	C2436.423096,1526.691772 2416.551514,1526.691772 2396.211914,1526.691772 
	C2381.136719,1592.518555 2366.169189,1657.874634 2351.201416,1723.230835 
	C2350.808350,1723.232300 2350.415039,1723.233765 2350.021729,1723.235229 
	C2336.494629,1657.692871 2322.967285,1592.150635 2309.425293,1526.535278 
	C2287.884033,1526.535278 2267.324219,1526.535278 2246.039795,1526.535278 
	C2233.188477,1592.302368 2220.394287,1657.776367 2207.346680,1724.547974 
	C2192.080078,1657.437256 2177.161621,1591.855225 2162.291748,1526.487793 
	C2140.337158,1526.487793 2119.748535,1526.487793 2098.323975,1526.487793 
	C2125.030518,1620.624268 2151.568115,1714.164917 2178.079102,1807.612549 
	C2197.214844,1807.612549 2215.429932,1807.612549 2234.356689,1807.612549 
	C2248.655029,1737.429077 2262.886719,1667.572998 2277.392334,1596.370850 
	C2291.919189,1667.571411 2306.171387,1737.425415 2320.490479,1807.607666 
	C2340.061768,1807.607666 2358.897705,1807.607666 2377.912598,1807.607666 
	C2378.675049,1805.381348 2379.403076,1803.544678 2379.937012,1801.653320 
	C2389.237549,1768.717529 2398.525146,1735.778198 2407.793213,1702.833374 
	C2419.941162,1659.649658 2432.069580,1616.460327 2444.476562,1571.666260 
M1013.501160,1603.472778 
	C1005.675476,1576.355835 997.849854,1549.238892 990.101318,1522.389160 
	C973.891235,1520.591675 933.061523,1521.235596 925.575378,1523.533081 
	C957.559387,1618.328857 989.536438,1713.103882 1021.440063,1807.661377 
	C1041.206543,1807.661377 1060.071899,1807.661377 1078.695312,1807.661377 
	C1105.206177,1736.710449 1174.438110,1530.913574 1174.742798,1522.084229 
	C1154.510498,1522.084229 1134.286743,1522.084229 1113.357300,1522.084229 
	C1092.868408,1592.735840 1072.448486,1663.149780 1052.028442,1733.563721 
	C1051.473267,1733.512207 1050.918091,1733.460693 1050.362915,1733.409302 
	C1038.203613,1690.622070 1026.044434,1647.834961 1013.501160,1603.472778 
M1927.288696,1645.906128 
	C1935.340454,1661.014526 1931.813110,1670.906494 1915.778809,1675.695435 
	C1907.901489,1678.048218 1899.552246,1678.977905 1891.351440,1680.058472 
	C1874.905029,1682.225220 1858.449463,1684.021362 1842.626099,1689.571289 
	C1803.220825,1703.391846 1786.112183,1751.992798 1808.826172,1787.297241 
	C1823.118286,1809.511841 1845.519897,1816.010254 1870.197266,1815.432617 
	C1890.012817,1814.968750 1907.727417,1807.570190 1922.901367,1794.527588 
	C1925.815552,1792.022705 1928.950073,1789.774170 1932.508057,1786.997559 
	C1934.344604,1794.641846 1935.934204,1801.258057 1937.488525,1807.727783 
	C1958.732666,1807.727783 1978.942749,1807.727783 1998.926270,1807.727783 
	C2000.624512,1802.748657 1999.319336,1799.596069 1995.250488,1797.127930 
	C1990.646606,1794.335449 1988.773560,1789.683594 1988.306641,1784.508911 
	C1987.948486,1780.538940 1987.726562,1776.542358 1987.722168,1772.557373 
	C1987.680054,1733.925049 1988.285034,1695.280884 1987.508423,1656.664185 
	C1986.899902,1626.395874 1976.839722,1610.404297 1949.078491,1600.340942 
	C1918.743164,1589.344238 1887.768433,1588.343750 1856.981079,1596.939087 
	C1823.304321,1606.340942 1807.204468,1634.187012 1807.334595,1665.658447 
	C1825.159180,1665.658447 1842.979004,1665.658447 1860.624878,1665.658447 
	C1861.692749,1662.215332 1862.582153,1659.389160 1863.445679,1656.555176 
	C1866.443848,1646.715210 1873.263550,1640.346069 1883.036987,1638.664673 
	C1894.826538,1636.636108 1906.913208,1636.262573 1918.533081,1640.343018 
	C1921.278687,1641.307129 1923.672729,1643.272583 1927.288696,1645.906128 
M2623.336426,1800.560913 
	C2616.812744,1795.476074 2612.242920,1789.430664 2612.265625,1780.587646 
	C2612.292725,1769.941040 2611.765381,1759.293579 2611.738525,1748.645874 
	C2611.660156,1717.339478 2612.045898,1686.028076 2611.598633,1654.727783 
	C2611.273193,1631.949341 2602.050049,1614.473145 2579.805664,1605.242554 
	C2548.848633,1592.396484 2517.274902,1590.967285 2485.076416,1599.131470 
	C2471.859863,1602.482544 2460.553955,1609.253174 2451.517822,1619.605591 
	C2439.641113,1633.211914 2435.180176,1649.358765 2434.346436,1667.580566 
	C2452.414551,1667.580566 2469.602051,1667.580566 2487.194092,1667.580566 
	C2488.187256,1664.372314 2488.987549,1661.188843 2490.152588,1658.144897 
	C2492.862549,1651.062622 2497.020996,1644.883057 2504.456299,1642.398193 
	C2518.476807,1637.712158 2532.589844,1637.901855 2546.392090,1643.559082 
	C2552.501465,1646.063232 2555.583496,1650.949585 2556.241943,1657.441528 
	C2557.226807,1667.151855 2553.933350,1673.237671 2543.766113,1676.192993 
	C2533.942139,1679.048584 2523.675049,1680.605347 2513.500732,1681.979004 
	C2496.681396,1684.250000 2479.839355,1686.261230 2464.075195,1693.055908 
	C2447.986328,1699.990723 2436.603271,1711.545654 2430.969482,1728.273560 
	C2426.625488,1741.172363 2426.425049,1754.590942 2428.722656,1767.744751 
	C2431.262939,1782.289307 2438.656982,1794.220581 2451.033447,1803.054199 
	C2474.325684,1819.678467 2513.889404,1819.800049 2540.175293,1800.653320 
	C2546.039551,1796.381714 2551.501953,1791.558350 2557.750732,1786.502686 
	C2559.427979,1793.823120 2561.006592,1800.712769 2562.578369,1807.573486 
	C2583.384521,1807.573486 2603.250488,1807.573486 2623.308594,1807.573486 
	C2623.444092,1805.415039 2623.547119,1803.773682 2623.336426,1800.560913 
M2753.748779,1667.054443 
	C2747.662109,1695.817627 2747.523926,1724.490356 2755.987549,1752.805908 
	C2760.767822,1768.798096 2769.774902,1782.109131 2783.132568,1792.505981 
	C2804.540039,1809.168457 2828.713867,1816.464355 2855.692871,1815.471069 
	C2891.121826,1814.166870 2919.184570,1800.106201 2937.790527,1769.085693 
	C2941.942627,1762.163452 2944.378418,1754.820923 2945.077393,1746.497559 
	C2926.012207,1746.497559 2907.441895,1746.497559 2889.155273,1746.497559 
	C2874.094971,1768.888062 2857.092773,1775.256348 2834.566406,1767.257446 
	C2816.389160,1760.802856 2804.500244,1740.841919 2806.875977,1719.245850 
	C2853.479980,1719.245850 2900.244873,1719.245850 2948.520264,1719.245850 
	C2947.551514,1703.368530 2947.860352,1688.655273 2945.531738,1674.371704 
	C2940.642578,1644.380005 2926.321533,1619.815796 2898.845459,1604.933228 
	C2877.890625,1593.583008 2854.980225,1592.249390 2831.794922,1594.930786 
	C2820.162598,1596.275879 2808.989990,1599.671021 2798.731445,1605.573608 
	C2775.233398,1619.094238 2760.791504,1639.369873 2753.748779,1667.054443 
M1679.609253,1808.948975 
	C1693.252686,1804.177246 1703.413696,1794.405762 1714.776367,1782.651978 
	C1714.776367,1792.597046 1714.776367,1800.116577 1714.776367,1808.284912 
	C1724.623657,1808.284912 1733.584473,1808.290405 1742.545288,1808.283325 
	C1751.386353,1808.276367 1760.227417,1808.256470 1769.133545,1808.242065 
	C1769.133545,1736.931030 1769.133545,1667.098999 1769.133545,1596.862305 
	C1750.114136,1596.862305 1731.668335,1596.862305 1712.296753,1596.862305 
	C1712.296753,1601.063721 1712.296631,1604.653320 1712.296631,1608.242920 
	C1712.296631,1642.905518 1712.320435,1677.568115 1712.268555,1712.230713 
	C1712.261597,1716.885010 1712.239990,1721.591187 1711.584229,1726.181885 
	C1710.264282,1735.420654 1708.321777,1744.534424 1702.168823,1752.052368 
	C1693.224243,1762.980713 1681.594971,1766.540894 1667.670776,1766.486938 
	C1654.329346,1766.435181 1640.046265,1759.601074 1637.583984,1741.898560 
	C1636.581543,1734.690796 1635.819214,1727.384033 1635.785278,1720.118286 
	C1635.608887,1682.456909 1635.714844,1644.794312 1635.683838,1607.132080 
	C1635.680908,1603.629761 1635.406738,1600.127686 1635.265625,1596.794922 
	C1615.773926,1596.794922 1597.559692,1596.794922 1578.844604,1596.794922 
	C1578.630615,1598.877197 1578.325562,1600.466187 1578.324585,1602.055420 
	C1578.297119,1647.050049 1577.995728,1692.048096 1578.491211,1737.037354 
	C1578.633057,1749.918457 1580.614868,1762.859375 1585.581787,1775.051025 
	C1592.369141,1791.711304 1603.825073,1803.372803 1621.227417,1808.873047 
	C1640.142212,1814.851196 1659.089111,1814.876465 1679.609253,1808.948975 
M1988.480469,760.428345 
	C1969.072144,725.578369 1950.155029,690.446594 1929.533203,654.779419 
	C1924.226685,664.261353 1919.813232,672.055420 1915.485107,679.896423 
	C1896.854858,713.647400 1877.524292,747.038208 1859.865356,781.290527 
	C1845.726562,808.714966 1848.423584,836.403870 1866.246704,861.439758 
	C1884.180298,886.630920 1910.029907,897.413330 1940.268311,893.234924 
	C1991.942749,886.094421 2020.061890,835.005432 2002.759155,788.329895 
	C1999.321777,779.057434 1993.786011,770.562805 1988.480469,760.428345 
M1852.292969,1176.011353 
	C1849.161377,1202.843872 1856.583740,1226.003906 1876.330933,1244.830933 
	C1913.117798,1279.903564 1975.825562,1269.143188 1998.805542,1223.877808 
	C2012.087646,1197.715332 2010.640381,1172.014771 1996.609863,1146.665283 
	C1975.837524,1109.135010 1955.050415,1071.613037 1934.218628,1034.115723 
	C1932.997314,1031.917358 1931.322998,1029.970581 1929.486572,1027.380493 
	C1927.916016,1029.726685 1926.714844,1031.271973 1925.774658,1032.962280 
	C1908.805176,1063.475220 1891.708130,1093.918823 1874.988281,1124.568237 
	C1866.270996,1140.547852 1855.562866,1155.690796 1852.292969,1176.011353 
M2112.177734,975.655945 
	C2108.263916,989.628357 2107.583496,1003.735596 2111.130615,1017.837708 
	C2121.391357,1058.628662 2161.275146,1084.918335 2204.558105,1075.054565 
	C2255.960693,1063.340820 2280.132812,1007.680359 2256.108398,962.233337 
	C2235.132812,922.553589 2212.765625,883.609253 2190.962646,844.368103 
	C2189.930176,842.509766 2188.407227,840.923828 2186.797119,838.793335 
	C2185.267822,841.117920 2184.066895,842.709167 2183.108887,844.435364 
	C2167.296631,872.922180 2151.396484,901.361145 2135.776367,929.953125 
	C2127.811768,944.531799 2120.363037,959.392151 2112.177734,975.655945 
M2280.482422,668.400024 
	C2278.139893,664.223938 2275.797119,660.047852 2272.957764,654.986084 
	C2270.896973,658.182617 2269.548340,660.033264 2268.445801,662.020447 
	C2247.001953,700.670044 2225.414795,739.241943 2204.246338,778.042175 
	C2195.240967,794.548218 2192.438965,812.130310 2195.971680,830.997681 
	C2203.061768,868.868408 2240.387451,900.304993 2285.667969,892.837769 
	C2340.765137,883.751709 2366.306396,824.630066 2341.144531,777.811523 
	C2321.635742,741.511108 2301.219727,705.698120 2280.482422,668.400024 
M2035.695068,772.600098 
	C2024.382568,789.892639 2021.064331,809.178467 2024.327271,829.028320 
	C2029.058105,857.807617 2045.625366,878.306946 2073.035645,888.564697 
	C2101.366455,899.166992 2128.268311,895.013367 2151.610107,875.545227 
	C2181.490479,850.623413 2187.579346,809.691772 2168.903564,776.177246 
	C2148.358398,739.308167 2128.014160,702.327026 2107.528564,665.424500 
	C2105.712158,662.152527 2103.497314,659.101624 2100.832764,654.961487 
	C2078.881104,694.604858 2057.644775,732.956238 2035.695068,772.600098 
M2034.709106,872.180298 
	C2028.494873,861.012268 2022.280640,849.844299 2015.817261,838.228333 
	C2014.425293,839.874695 2013.900024,840.325500 2013.584473,840.893005 
	C1990.961792,881.581909 1967.982178,922.078796 1945.906860,963.062744 
	C1934.946533,983.411194 1934.288696,1005.393982 1942.400146,1026.895752 
	C1954.717041,1059.544922 1986.531738,1079.229370 2022.653564,1076.519897 
	C2060.182861,1073.704956 2093.437744,1041.489868 2093.713867,998.906799 
	C2093.821045,982.375793 2087.935303,967.772034 2080.044434,953.657837 
	C2065.116455,926.956909 2050.370361,900.154419 2034.709106,872.180298 
M2039.189697,1138.037231 
	C2029.322510,1153.810913 2023.590088,1170.337646 2023.297363,1189.591187 
	C2022.773804,1224.021973 2051.739014,1263.868286 2098.117432,1265.547974 
	C2153.348633,1267.548218 2186.248535,1217.536987 2178.436279,1175.007324 
	C2176.348145,1163.639038 2171.932373,1153.404541 2166.450195,1143.490845 
	C2146.491211,1107.398315 2126.446289,1071.352905 2106.398682,1035.309448 
	C2104.885010,1032.588013 2103.094971,1030.020142 2100.875488,1026.494751 
	C2080.107422,1064.010254 2059.981689,1100.365845 2039.189697,1138.037231 
M2036.870239,1247.951416 
	C2029.864258,1235.485840 2023.594849,1222.574707 2015.027710,1209.646118 
	C1991.280884,1252.614502 1968.094727,1294.083740 1945.423340,1335.832520 
	C1936.501099,1352.262573 1935.506348,1370.192871 1939.312012,1388.250244 
	C1946.792969,1423.747437 1981.253784,1448.637207 2016.147827,1448.659912 
	C2071.791504,1448.695923 2114.051514,1387.229980 2083.580322,1332.039795 
	C2068.318604,1304.397339 2053.009277,1276.781250 2036.870239,1247.951416 
M1747.895630,670.827942 
	C1746.468750,673.458557 1745.058838,676.098633 1743.612549,678.718506 
	C1724.983276,712.462463 1706.439819,746.254211 1687.675415,779.922974 
	C1678.779053,795.885681 1677.555176,813.190063 1680.527832,830.342590 
	C1687.334839,869.621155 1722.703247,899.192444 1767.484863,893.183472 
	C1823.757446,885.632629 1851.791748,826.108521 1825.572998,777.642456 
	C1807.230591,743.736023 1788.224731,710.188477 1769.503418,676.487122 
	C1765.673218,669.592041 1761.791382,662.725708 1757.255005,654.636475 
	C1753.910522,660.488647 1751.307617,665.043274 1747.895630,670.827942 
M1861.592407,1075.243530 
	C1874.993164,1071.680298 1887.028687,1065.581177 1897.277222,1056.122681 
	C1923.277832,1032.126465 1929.924927,991.846741 1910.989380,958.238342 
	C1890.264160,921.453552 1870.042236,884.385193 1849.545288,847.471497 
	C1848.003418,844.694824 1846.014038,842.166626 1843.868286,838.982178 
	C1842.474731,840.689209 1841.514526,841.565369 1840.915894,842.642395 
	C1818.782471,882.456970 1795.993652,921.927368 1774.764771,962.219421 
	C1751.974609,1005.474731 1772.767090,1055.257202 1815.954712,1072.021729 
	C1830.265015,1077.576660 1845.002319,1077.786377 1861.592407,1075.243530 
M1533.050537,1598.246948 
	C1528.837646,1598.246948 1524.624878,1598.246948 1519.499512,1598.246948 
	C1519.499512,1578.190430 1519.499512,1559.362305 1519.499512,1540.327881 
	C1500.452881,1540.327881 1482.374878,1540.327881 1463.352905,1540.327881 
	C1463.352905,1559.855347 1463.352905,1578.685547 1463.352905,1598.580444 
	C1453.274048,1598.580444 1444.130981,1598.580444 1434.817261,1598.580444 
	C1434.817261,1612.195435 1434.817261,1624.701416 1434.817261,1638.365967 
	C1444.413208,1638.365967 1453.548096,1638.365967 1463.668701,1638.365967 
	C1463.668701,1643.072754 1463.668579,1646.658569 1463.668579,1650.244385 
	C1463.668945,1690.536377 1463.575439,1730.828735 1463.709351,1771.120239 
	C1463.776245,1791.217529 1472.682739,1802.658813 1491.975342,1808.091064 
	C1512.190063,1813.782959 1532.539917,1811.512939 1553.538940,1809.509277 
	C1553.703247,1795.534424 1553.918823,1782.111938 1553.431763,1768.245239 
	C1546.738159,1768.245239 1541.425415,1768.323486 1536.115723,1768.230103 
	C1522.280640,1767.986694 1519.714355,1765.446655 1519.705078,1751.933960 
	C1519.681274,1717.302856 1519.685791,1682.671631 1519.717773,1648.040527 
	C1519.720459,1645.127441 1520.014526,1642.214722 1520.238770,1638.099121 
	C1531.455811,1638.099121 1542.234375,1638.099121 1553.175171,1638.099121 
	C1553.175171,1624.360107 1553.175171,1611.862915 1553.175171,1598.247070 
	C1546.795044,1598.247070 1540.895264,1598.247070 1533.050537,1598.246948 
M2644.796387,1601.016724 
	C2637.560303,1601.016724 2630.324219,1601.016724 2622.402832,1601.016724 
	C2622.272705,1615.178467 2622.178467,1627.948364 2622.455078,1641.961426 
	C2632.931396,1641.961426 2642.024170,1641.961426 2651.687012,1641.961426 
	C2651.687012,1646.860352 2651.687012,1650.485352 2651.687012,1654.110352 
	C2651.687012,1693.424438 2651.657471,1732.738525 2651.699707,1772.052612 
	C2651.721436,1792.220947 2660.425781,1803.468262 2680.180420,1808.546997 
	C2697.844238,1813.088135 2715.833252,1811.569336 2733.749023,1810.782227 
	C2735.592773,1810.701172 2737.393799,1809.654663 2739.119141,1809.087524 
	C2739.119141,1795.822632 2739.119141,1782.984741 2739.119141,1769.720581 
	C2730.999512,1769.152100 2723.429688,1768.549072 2715.850098,1768.115479 
	C2710.162842,1767.790039 2707.616943,1764.194702 2706.625000,1759.256592 
	C2706.108154,1756.683105 2706.324463,1753.948730 2706.323242,1751.287109 
	C2706.307617,1718.303223 2706.312988,1685.319458 2706.312988,1652.335571 
	C2706.312988,1649.092407 2706.312988,1645.849243 2706.312988,1641.395752 
	C2717.831299,1641.395752 2728.301270,1641.395752 2738.974121,1641.395752 
	C2738.974121,1627.429565 2738.974121,1614.695679 2738.974121,1600.997559 
	C2728.040283,1600.997559 2717.816650,1600.997559 2706.257812,1600.997559 
	C2706.257812,1581.307129 2706.257812,1562.546021 2706.257812,1543.681641 
	C2687.406982,1543.681641 2669.916260,1543.681641 2651.687012,1543.681641 
	C2651.687012,1547.622925 2651.687500,1550.917725 2651.687012,1554.212402 
	C2651.684814,1567.539185 2651.660889,1580.866089 2651.694092,1594.192871 
	C2651.702881,1597.741577 2651.589111,1601.073730 2644.796387,1601.016724 
M2083.687500,1759.000000 
	C2083.687500,1747.670776 2083.623779,1736.341187 2083.715576,1725.012695 
	C2083.758789,1719.693481 2084.139404,1714.377930 2084.293457,1709.058472 
	C2084.380371,1706.062012 2084.322266,1703.061279 2084.321777,1700.062378 
	C2084.314209,1642.417114 2084.307373,1584.771973 2084.279541,1527.126709 
	C2084.279053,1526.142212 2084.048340,1525.152222 2083.861572,1524.176880 
	C2083.806641,1523.889282 2083.563721,1523.616455 2083.353271,1523.385620 
	C2083.131104,1523.141968 2082.845459,1522.956543 2081.988525,1522.256226 
	C2073.626221,1522.256226 2064.657227,1522.219360 2055.688965,1522.266479 
	C2046.506714,1522.314575 2037.325073,1522.445068 2028.213867,1522.538696 
	C2028.213867,1618.312012 2028.213867,1712.815674 2028.213867,1807.540894 
	C2046.822998,1807.540894 2064.895752,1807.540894 2083.687256,1807.540894 
	C2083.687256,1791.545654 2083.687256,1776.272827 2083.687500,1759.000000 
M1349.693604,1735.000000 
	C1349.908936,1720.353516 1349.370972,1705.648560 1350.505737,1691.073608 
	C1352.494995,1665.524170 1363.810425,1653.340576 1389.189331,1649.328125 
	C1397.776978,1647.970459 1406.760010,1649.113037 1415.460205,1649.113037 
	C1417.219849,1634.308105 1416.696289,1598.849976 1414.794067,1592.271484 
	C1383.452026,1587.593384 1362.955566,1603.352661 1347.922485,1629.351074 
	C1347.312988,1628.931274 1346.703613,1628.511475 1346.094116,1628.091553 
	C1346.094116,1617.721191 1346.094116,1607.350830 1346.094116,1596.851562 
	C1328.147583,1596.851562 1311.337769,1596.851562 1293.421875,1596.851562 
	C1293.421875,1667.494507 1293.421875,1737.536255 1293.421875,1807.534790 
	C1312.109131,1807.534790 1330.561035,1807.534790 1349.693604,1807.534790 
	C1349.693604,1783.533203 1349.693604,1760.266602 1349.693604,1735.000000 
M3023.706787,1772.997070 
	C3023.706787,1749.363647 3023.536133,1725.728394 3023.812744,1702.098145 
	C3023.893555,1695.184814 3024.569824,1688.125488 3026.161133,1681.414795 
	C3029.369629,1667.884277 3037.506348,1658.252563 3051.145752,1654.077271 
	C3060.365723,1651.255005 3069.721436,1649.528687 3079.477295,1651.260498 
	C3082.557861,1651.807251 3085.817871,1651.345703 3089.002197,1651.345703 
	C3089.002197,1631.774902 3089.002197,1613.641968 3089.002197,1594.107056 
	C3084.439453,1594.107056 3080.483154,1593.598633 3076.711426,1594.215576 
	C3069.521973,1595.391724 3062.212158,1596.550781 3055.355469,1598.895752 
	C3039.902588,1604.180786 3031.189453,1617.382080 3022.465820,1630.389771 
	C3021.780762,1630.038086 3021.095947,1629.686401 3020.411133,1629.334839 
	C3020.411133,1619.574829 3020.411133,1609.814819 3020.411133,1600.261719 
	C3008.416504,1598.178467 2975.113037,1598.623901 2968.198242,1600.782471 
	C2968.198242,1669.533325 2968.198242,1738.305298 2968.198242,1807.427002 
	C2986.781494,1807.427002 3004.847900,1807.427002 3023.706543,1807.427002 
	C3023.706543,1796.177124 3023.706543,1785.586304 3023.706787,1772.997070 
M1192.293335,1643.000000 
	C1192.293335,1697.850464 1192.293335,1752.700928 1192.293335,1807.572266 
	C1212.065308,1807.572266 1230.519897,1807.572266 1248.875977,1807.572266 
	C1250.979736,1788.895508 1250.139038,1603.561890 1248.030273,1596.780396 
	C1229.787598,1596.780396 1211.576904,1596.780396 1192.293457,1596.780396 
	C1192.293457,1611.870361 1192.293457,1626.435181 1192.293335,1643.000000 
M1236.809570,1572.295044 
	C1240.964355,1572.177734 1245.119141,1572.060303 1249.067627,1571.948853 
	C1249.067627,1554.075806 1249.067627,1537.580322 1249.067627,1520.910645 
	C1229.973145,1520.910645 1211.532837,1520.910645 1192.761230,1520.910645 
	C1192.761230,1538.098389 1192.761230,1554.602905 1192.761230,1572.295166 
	C1207.085815,1572.295166 1220.967163,1572.295166 1236.809570,1572.295044 
z"/>
<path fill="#04B3C1" opacity="1.000000" stroke="none" 
	d="
M2434.034180,1148.111206 
	C2438.372314,1133.486328 2443.001953,1118.940308 2446.986572,1104.219727 
	C2454.984863,1074.672241 2460.864990,1044.681885 2462.184570,1014.048035 
	C2463.242432,989.488342 2464.778564,964.790222 2463.354980,940.313293 
	C2459.497314,873.978149 2443.594971,810.502197 2414.951660,750.282959 
	C2394.645996,707.592896 2368.961426,668.543518 2337.525879,633.361267 
	C2301.047363,592.534851 2258.561768,559.238831 2210.013428,533.732178 
	C2169.629639,512.514832 2126.950684,498.105438 2081.968750,490.877625 
	C2041.064331,484.305054 2000.046631,483.803619 1958.869263,489.447266 
	C1912.276001,495.833191 1868.078247,509.615326 1826.187500,530.696350 
	C1784.269531,551.791077 1746.802368,579.146301 1713.316772,612.110352 
	C1674.012939,650.801758 1642.349976,694.925354 1618.175293,744.378479 
	C1594.651123,792.501282 1579.277100,843.141907 1571.504517,896.236145 
	C1566.521851,930.272034 1564.941284,964.430786 1566.587036,998.605957 
	C1568.620972,1040.842773 1575.926880,1082.388916 1588.483521,1122.871826 
	C1592.590332,1136.112183 1597.239624,1149.184082 1601.244385,1162.484741 
	C1590.056519,1144.676758 1582.011719,1125.393188 1574.466309,1105.925903 
	C1559.259277,1066.691650 1549.212402,1026.051147 1544.592041,984.289856 
	C1540.971680,951.567444 1540.730591,918.709595 1543.422363,885.739624 
	C1548.070190,828.809814 1561.896973,774.426270 1585.351807,722.429443 
	C1607.989746,672.243713 1638.128906,627.162170 1676.057251,587.128967 
	C1717.775879,543.095032 1766.031860,508.329285 1820.892944,482.723694 
	C1864.611328,462.318909 1910.552490,449.469543 1958.437500,443.469971 
	C1984.581055,440.194366 2010.858276,439.211975 2037.089478,440.428986 
	C2074.016113,442.142242 2110.364258,448.115417 2145.908691,458.623138 
	C2215.053955,479.063995 2276.300293,513.713013 2329.523926,562.118408 
	C2371.985352,600.735657 2406.665771,645.639282 2433.207764,696.687256 
	C2454.356201,737.362549 2469.693848,780.105713 2478.862793,825.011414 
	C2484.182861,851.066284 2488.025879,877.327209 2488.388428,904.011841 
	C2488.523926,913.963806 2489.881592,923.925781 2489.600098,933.852539 
	C2487.444092,1009.953979 2471.409424,1082.693359 2435.464355,1150.911255 
	C2434.456787,1150.115967 2434.245361,1149.113525 2434.034180,1148.111206 
z"/>
<path fill="#6D6F79" opacity="1.000000" stroke="none" 
	d="
M2444.341553,1572.469971 
	C2432.069580,1616.460327 2419.941162,1659.649658 2407.793213,1702.833374 
	C2398.525146,1735.778198 2389.237549,1768.717529 2379.937012,1801.653320 
	C2379.403076,1803.544678 2378.675049,1805.381348 2377.912598,1807.607666 
	C2358.897705,1807.607666 2340.061768,1807.607666 2320.490479,1807.607666 
	C2306.171387,1737.425415 2291.919189,1667.571411 2277.392334,1596.370850 
	C2262.886719,1667.572998 2248.655029,1737.429077 2234.356689,1807.612549 
	C2215.429932,1807.612549 2197.214844,1807.612549 2178.079102,1807.612549 
	C2151.568115,1714.164917 2125.030518,1620.624268 2098.323975,1526.487793 
	C2119.748535,1526.487793 2140.337158,1526.487793 2162.291748,1526.487793 
	C2177.161621,1591.855225 2192.080078,1657.437256 2207.346680,1724.547974 
	C2220.394287,1657.776367 2233.188477,1592.302368 2246.039795,1526.535278 
	C2267.324219,1526.535278 2287.884033,1526.535278 2309.425293,1526.535278 
	C2322.967285,1592.150635 2336.494629,1657.692871 2350.021729,1723.235229 
	C2350.415039,1723.233765 2350.808350,1723.232300 2351.201416,1723.230835 
	C2366.169189,1657.874634 2381.136719,1592.518555 2396.211914,1526.691772 
	C2416.551514,1526.691772 2436.423096,1526.691772 2457.360352,1526.691772 
	C2453.023193,1541.831909 2448.750000,1556.749023 2444.341553,1572.469971 
z"/>
<path fill="#02B3C1" opacity="1.000000" stroke="none" 
	d="
M1013.693115,1604.260254 
	C1026.044434,1647.834961 1038.203613,1690.622070 1050.362915,1733.409302 
	C1050.918091,1733.460693 1051.473267,1733.512207 1052.028442,1733.563721 
	C1072.448486,1663.149780 1092.868408,1592.735840 1113.357300,1522.084229 
	C1134.286743,1522.084229 1154.510498,1522.084229 1174.742798,1522.084229 
	C1174.438110,1530.913574 1105.206177,1736.710449 1078.695312,1807.661377 
	C1060.071899,1807.661377 1041.206543,1807.661377 1021.440063,1807.661377 
	C989.536438,1713.103882 957.559387,1618.328857 925.575378,1523.533081 
	C933.061523,1521.235596 973.891235,1520.591675 990.101318,1522.389160 
	C997.849854,1549.238892 1005.675476,1576.355835 1013.693115,1604.260254 
z"/>
<path fill="#03B3C1" opacity="1.000000" stroke="none" 
	d="
M1926.758545,1645.341797 
	C1923.672729,1643.272583 1921.278687,1641.307129 1918.533081,1640.343018 
	C1906.913208,1636.262573 1894.826538,1636.636108 1883.036987,1638.664673 
	C1873.263550,1640.346069 1866.443848,1646.715210 1863.445679,1656.555176 
	C1862.582153,1659.389160 1861.692749,1662.215332 1860.624878,1665.658447 
	C1842.979004,1665.658447 1825.159180,1665.658447 1807.334595,1665.658447 
	C1807.204468,1634.187012 1823.304321,1606.340942 1856.981079,1596.939087 
	C1887.768433,1588.343750 1918.743164,1589.344238 1949.078491,1600.340942 
	C1976.839722,1610.404297 1986.899902,1626.395874 1987.508423,1656.664185 
	C1988.285034,1695.280884 1987.680054,1733.925049 1987.722168,1772.557373 
	C1987.726562,1776.542358 1987.948486,1780.538940 1988.306641,1784.508911 
	C1988.773560,1789.683594 1990.646606,1794.335449 1995.250488,1797.127930 
	C1999.319336,1799.596069 2000.624512,1802.748657 1998.926270,1807.727783 
	C1978.942749,1807.727783 1958.732666,1807.727783 1937.488525,1807.727783 
	C1935.934204,1801.258057 1934.344604,1794.641846 1932.508057,1786.997559 
	C1928.950073,1789.774170 1925.815552,1792.022705 1922.901367,1794.527588 
	C1907.727417,1807.570190 1890.012817,1814.968750 1870.197266,1815.432617 
	C1845.519897,1816.010254 1823.118286,1809.511841 1808.826172,1787.297241 
	C1786.112183,1751.992798 1803.220825,1703.391846 1842.626099,1689.571289 
	C1858.449463,1684.021362 1874.905029,1682.225220 1891.351440,1680.058472 
	C1899.552246,1678.977905 1907.901489,1678.048218 1915.778809,1675.695435 
	C1931.813110,1670.906494 1935.340454,1661.014526 1926.758545,1645.341797 
M1888.135010,1718.692993 
	C1882.161621,1720.647583 1875.995605,1722.157959 1870.255005,1724.648926 
	C1858.174927,1729.890381 1854.272461,1742.672607 1856.589600,1754.808350 
	C1858.732910,1766.033081 1867.383057,1773.149902 1879.978271,1774.076294 
	C1883.920410,1774.366211 1888.049194,1774.304443 1891.884766,1773.459595 
	C1905.098511,1770.549438 1917.872925,1766.132446 1924.851685,1753.432251 
	C1932.577393,1739.372803 1932.545044,1723.999023 1931.147705,1709.369507 
	C1916.810059,1712.448608 1903.279175,1715.354492 1888.135010,1718.692993 
z"/>
<path fill="#6D7079" opacity="1.000000" stroke="none" 
	d="
M2623.493408,1801.346680 
	C2623.547119,1803.773682 2623.444092,1805.415039 2623.308594,1807.573486 
	C2603.250488,1807.573486 2583.384521,1807.573486 2562.578369,1807.573486 
	C2561.006592,1800.712769 2559.427979,1793.823120 2557.750732,1786.502686 
	C2551.501953,1791.558350 2546.039551,1796.381714 2540.175293,1800.653320 
	C2513.889404,1819.800049 2474.325684,1819.678467 2451.033447,1803.054199 
	C2438.656982,1794.220581 2431.262939,1782.289307 2428.722656,1767.744751 
	C2426.425049,1754.590942 2426.625488,1741.172363 2430.969482,1728.273560 
	C2436.603271,1711.545654 2447.986328,1699.990723 2464.075195,1693.055908 
	C2479.839355,1686.261230 2496.681396,1684.250000 2513.500732,1681.979004 
	C2523.675049,1680.605347 2533.942139,1679.048584 2543.766113,1676.192993 
	C2553.933350,1673.237671 2557.226807,1667.151855 2556.241943,1657.441528 
	C2555.583496,1650.949585 2552.501465,1646.063232 2546.392090,1643.559082 
	C2532.589844,1637.901855 2518.476807,1637.712158 2504.456299,1642.398193 
	C2497.020996,1644.883057 2492.862549,1651.062622 2490.152588,1658.144897 
	C2488.987549,1661.188843 2488.187256,1664.372314 2487.194092,1667.580566 
	C2469.602051,1667.580566 2452.414551,1667.580566 2434.346436,1667.580566 
	C2435.180176,1649.358765 2439.641113,1633.211914 2451.517822,1619.605591 
	C2460.553955,1609.253174 2471.859863,1602.482544 2485.076416,1599.131470 
	C2517.274902,1590.967285 2548.848633,1592.396484 2579.805664,1605.242554 
	C2602.050049,1614.473145 2611.273193,1631.949341 2611.598633,1654.727783 
	C2612.045898,1686.028076 2611.660156,1717.339478 2611.738525,1748.645874 
	C2611.765381,1759.293579 2612.292725,1769.941040 2612.265625,1780.587646 
	C2612.242920,1789.430664 2616.812744,1795.476074 2623.493408,1801.346680 
M2488.785645,1765.929199 
	C2495.681641,1773.781250 2504.833740,1774.857666 2514.376709,1774.031494 
	C2528.168457,1772.837524 2540.534180,1767.910522 2548.570557,1756.233643 
	C2558.343262,1742.033325 2556.684570,1725.798950 2555.835205,1710.286255 
	C2544.279297,1713.032593 2533.686768,1715.574097 2523.081543,1718.061279 
	C2516.942383,1719.501099 2510.733887,1720.669922 2504.641602,1722.280884 
	C2486.818115,1726.993408 2477.058350,1742.754639 2488.785645,1765.929199 
z"/>
<path fill="#6D707A" opacity="1.000000" stroke="none" 
	d="
M2753.940918,1666.247192 
	C2760.791504,1639.369873 2775.233398,1619.094238 2798.731445,1605.573608 
	C2808.989990,1599.671021 2820.162598,1596.275879 2831.794922,1594.930786 
	C2854.980225,1592.249390 2877.890625,1593.583008 2898.845459,1604.933228 
	C2926.321533,1619.815796 2940.642578,1644.380005 2945.531738,1674.371704 
	C2947.860352,1688.655273 2947.551514,1703.368530 2948.520264,1719.245850 
	C2900.244873,1719.245850 2853.479980,1719.245850 2806.875977,1719.245850 
	C2804.500244,1740.841919 2816.389160,1760.802856 2834.566406,1767.257446 
	C2857.092773,1775.256348 2874.094971,1768.888062 2889.155273,1746.497559 
	C2907.441895,1746.497559 2926.012207,1746.497559 2945.077393,1746.497559 
	C2944.378418,1754.820923 2941.942627,1762.163452 2937.790527,1769.085693 
	C2919.184570,1800.106201 2891.121826,1814.166870 2855.692871,1815.471069 
	C2828.713867,1816.464355 2804.540039,1809.168457 2783.132568,1792.505981 
	C2769.774902,1782.109131 2760.767822,1768.798096 2755.987549,1752.805908 
	C2747.523926,1724.490356 2747.662109,1695.817627 2753.940918,1666.247192 
M2810.869385,1666.426514 
	C2809.754395,1671.364502 2806.473145,1676.028809 2808.530273,1681.678711 
	C2835.772949,1681.678711 2862.570557,1681.678711 2889.977051,1681.678711 
	C2889.157959,1668.907837 2885.568604,1657.908936 2875.814941,1649.752563 
	C2853.690186,1631.250854 2824.859375,1638.186890 2810.869385,1666.426514 
z"/>
<path fill="#04B3C1" opacity="1.000000" stroke="none" 
	d="
M1678.863281,1809.242920 
	C1659.089111,1814.876465 1640.142212,1814.851196 1621.227417,1808.873047 
	C1603.825073,1803.372803 1592.369141,1791.711304 1585.581787,1775.051025 
	C1580.614868,1762.859375 1578.633057,1749.918457 1578.491211,1737.037354 
	C1577.995728,1692.048096 1578.297119,1647.050049 1578.324585,1602.055420 
	C1578.325562,1600.466187 1578.630615,1598.877197 1578.844604,1596.794922 
	C1597.559692,1596.794922 1615.773926,1596.794922 1635.265625,1596.794922 
	C1635.406738,1600.127686 1635.680908,1603.629761 1635.683838,1607.132080 
	C1635.714844,1644.794312 1635.608887,1682.456909 1635.785278,1720.118286 
	C1635.819214,1727.384033 1636.581543,1734.690796 1637.583984,1741.898560 
	C1640.046265,1759.601074 1654.329346,1766.435181 1667.670776,1766.486938 
	C1681.594971,1766.540894 1693.224243,1762.980713 1702.168823,1752.052368 
	C1708.321777,1744.534424 1710.264282,1735.420654 1711.584229,1726.181885 
	C1712.239990,1721.591187 1712.261597,1716.885010 1712.268555,1712.230713 
	C1712.320435,1677.568115 1712.296631,1642.905518 1712.296631,1608.242920 
	C1712.296631,1604.653320 1712.296753,1601.063721 1712.296753,1596.862305 
	C1731.668335,1596.862305 1750.114136,1596.862305 1769.133545,1596.862305 
	C1769.133545,1667.098999 1769.133545,1736.931030 1769.133545,1808.242065 
	C1760.227417,1808.256470 1751.386353,1808.276367 1742.545288,1808.283325 
	C1733.584473,1808.290405 1724.623657,1808.284912 1714.776367,1808.284912 
	C1714.776367,1800.116577 1714.776367,1792.597046 1714.776367,1782.651978 
	C1703.413696,1794.405762 1693.252686,1804.177246 1678.863281,1809.242920 
z"/>
<path fill="#02B3C0" opacity="1.000000" stroke="none" 
	d="
M1988.849121,761.068909 
	C1993.786011,770.562805 1999.321777,779.057434 2002.759155,788.329895 
	C2020.061890,835.005432 1991.942749,886.094421 1940.268311,893.234924 
	C1910.029907,897.413330 1884.180298,886.630920 1866.246704,861.439758 
	C1848.423584,836.403870 1845.726562,808.714966 1859.865356,781.290527 
	C1877.524292,747.038208 1896.854858,713.647400 1915.485107,679.896423 
	C1919.813232,672.055420 1924.226685,664.261353 1929.533203,654.779419 
	C1950.155029,690.446594 1969.072144,725.578369 1988.849121,761.068909 
z"/>
<path fill="#02B3C0" opacity="1.000000" stroke="none" 
	d="
M1852.374634,1175.126221 
	C1855.562866,1155.690796 1866.270996,1140.547852 1874.988281,1124.568237 
	C1891.708130,1093.918823 1908.805176,1063.475220 1925.774658,1032.962280 
	C1926.714844,1031.271973 1927.916016,1029.726685 1929.486572,1027.380493 
	C1931.322998,1029.970581 1932.997314,1031.917358 1934.218628,1034.115723 
	C1955.050415,1071.613037 1975.837524,1109.135010 1996.609863,1146.665283 
	C2010.640381,1172.014771 2012.087646,1197.715332 1998.805542,1223.877808 
	C1975.825562,1269.143188 1913.117798,1279.903564 1876.330933,1244.830933 
	C1856.583740,1226.003906 1849.161377,1202.843872 1852.374634,1175.126221 
z"/>
<path fill="#02B3C0" opacity="1.000000" stroke="none" 
	d="
M2112.429443,974.890625 
	C2120.363037,959.392151 2127.811768,944.531799 2135.776367,929.953125 
	C2151.396484,901.361145 2167.296631,872.922180 2183.108887,844.435364 
	C2184.066895,842.709167 2185.267822,841.117920 2186.797119,838.793335 
	C2188.407227,840.923828 2189.930176,842.509766 2190.962646,844.368103 
	C2212.765625,883.609253 2235.132812,922.553589 2256.108398,962.233337 
	C2280.132812,1007.680359 2255.960693,1063.340820 2204.558105,1075.054565 
	C2161.275146,1084.918335 2121.391357,1058.628662 2111.130615,1017.837708 
	C2107.583496,1003.735596 2108.263916,989.628357 2112.429443,974.890625 
z"/>
<path fill="#02B3C0" opacity="1.000000" stroke="none" 
	d="
M2280.844482,669.034302 
	C2301.219727,705.698120 2321.635742,741.511108 2341.144531,777.811523 
	C2366.306396,824.630066 2340.765137,883.751709 2285.667969,892.837769 
	C2240.387451,900.304993 2203.061768,868.868408 2195.971680,830.997681 
	C2192.438965,812.130310 2195.240967,794.548218 2204.246338,778.042175 
	C2225.414795,739.241943 2247.001953,700.670044 2268.445801,662.020447 
	C2269.548340,660.033264 2270.896973,658.182617 2272.957764,654.986084 
	C2275.797119,660.047852 2278.139893,664.223938 2280.844482,669.034302 
z"/>
<path fill="#02B3C0" opacity="1.000000" stroke="none" 
	d="
M2036.051758,771.953857 
	C2057.644775,732.956238 2078.881104,694.604858 2100.832764,654.961487 
	C2103.497314,659.101624 2105.712158,662.152527 2107.528564,665.424500 
	C2128.014160,702.327026 2148.358398,739.308167 2168.903564,776.177246 
	C2187.579346,809.691772 2181.490479,850.623413 2151.610107,875.545227 
	C2128.268311,895.013367 2101.366455,899.166992 2073.035645,888.564697 
	C2045.625366,878.306946 2029.058105,857.807617 2024.327271,829.028320 
	C2021.064331,809.178467 2024.382568,789.892639 2036.051758,771.953857 
z"/>
<path fill="#02B3C0" opacity="1.000000" stroke="none" 
	d="
M2035.128906,872.787231 
	C2050.370361,900.154419 2065.116455,926.956909 2080.044434,953.657837 
	C2087.935303,967.772034 2093.821045,982.375793 2093.713867,998.906799 
	C2093.437744,1041.489868 2060.182861,1073.704956 2022.653564,1076.519897 
	C1986.531738,1079.229370 1954.717041,1059.544922 1942.400146,1026.895752 
	C1934.288696,1005.393982 1934.946533,983.411194 1945.906860,963.062744 
	C1967.982178,922.078796 1990.961792,881.581909 2013.584473,840.893005 
	C2013.900024,840.325500 2014.425293,839.874695 2015.817261,838.228333 
	C2022.280640,849.844299 2028.494873,861.012268 2035.128906,872.787231 
z"/>
<path fill="#02B3C0" opacity="1.000000" stroke="none" 
	d="
M2039.522705,1137.379395 
	C2059.981689,1100.365845 2080.107422,1064.010254 2100.875488,1026.494751 
	C2103.094971,1030.020142 2104.885010,1032.588013 2106.398682,1035.309448 
	C2126.446289,1071.352905 2146.491211,1107.398315 2166.450195,1143.490845 
	C2171.932373,1153.404541 2176.348145,1163.639038 2178.436279,1175.007324 
	C2186.248535,1217.536987 2153.348633,1267.548218 2098.117432,1265.547974 
	C2051.739014,1263.868286 2022.773804,1224.021973 2023.297363,1189.591187 
	C2023.590088,1170.337646 2029.322510,1153.810913 2039.522705,1137.379395 
z"/>
<path fill="#02B2C0" opacity="1.000000" stroke="none" 
	d="
M2037.295898,1248.552368 
	C2053.009277,1276.781250 2068.318604,1304.397339 2083.580322,1332.039795 
	C2114.051514,1387.229980 2071.791504,1448.695923 2016.147827,1448.659912 
	C1981.253784,1448.637207 1946.792969,1423.747437 1939.312012,1388.250244 
	C1935.506348,1370.192871 1936.501099,1352.262573 1945.423340,1335.832520 
	C1968.094727,1294.083740 1991.280884,1252.614502 2015.027710,1209.646118 
	C2023.594849,1222.574707 2029.864258,1235.485840 2037.295898,1248.552368 
z"/>
<path fill="#02B2C0" opacity="1.000000" stroke="none" 
	d="
M1748.300171,670.212891 
	C1751.307617,665.043274 1753.910522,660.488647 1757.255005,654.636475 
	C1761.791382,662.725708 1765.673218,669.592041 1769.503418,676.487122 
	C1788.224731,710.188477 1807.230591,743.736023 1825.572998,777.642456 
	C1851.791748,826.108521 1823.757446,885.632629 1767.484863,893.183472 
	C1722.703247,899.192444 1687.334839,869.621155 1680.527832,830.342590 
	C1677.555176,813.190063 1678.779053,795.885681 1687.675415,779.922974 
	C1706.439819,746.254211 1724.983276,712.462463 1743.612549,678.718506 
	C1745.058838,676.098633 1746.468750,673.458557 1748.300171,670.212891 
z"/>
<path fill="#02B2C0" opacity="1.000000" stroke="none" 
	d="
M1860.765381,1075.423340 
	C1845.002319,1077.786377 1830.265015,1077.576660 1815.954712,1072.021729 
	C1772.767090,1055.257202 1751.974609,1005.474731 1774.764771,962.219421 
	C1795.993652,921.927368 1818.782471,882.456970 1840.915894,842.642395 
	C1841.514526,841.565369 1842.474731,840.689209 1843.868286,838.982178 
	C1846.014038,842.166626 1848.003418,844.694824 1849.545288,847.471497 
	C1870.042236,884.385193 1890.264160,921.453552 1910.989380,958.238342 
	C1929.924927,991.846741 1923.277832,1032.126465 1897.277222,1056.122681 
	C1887.028687,1065.581177 1874.993164,1071.680298 1860.765381,1075.423340 
z"/>
<path fill="#03B3C1" opacity="1.000000" stroke="none" 
	d="
M1534.022949,1598.247070 
	C1540.895264,1598.247070 1546.795044,1598.247070 1553.175171,1598.247070 
	C1553.175171,1611.862915 1553.175171,1624.360107 1553.175171,1638.099121 
	C1542.234375,1638.099121 1531.455811,1638.099121 1520.238770,1638.099121 
	C1520.014526,1642.214722 1519.720459,1645.127441 1519.717773,1648.040527 
	C1519.685791,1682.671631 1519.681274,1717.302856 1519.705078,1751.933960 
	C1519.714355,1765.446655 1522.280640,1767.986694 1536.115723,1768.230103 
	C1541.425415,1768.323486 1546.738159,1768.245239 1553.431763,1768.245239 
	C1553.918823,1782.111938 1553.703247,1795.534424 1553.538940,1809.509277 
	C1532.539917,1811.512939 1512.190063,1813.782959 1491.975342,1808.091064 
	C1472.682739,1802.658813 1463.776245,1791.217529 1463.709351,1771.120239 
	C1463.575439,1730.828735 1463.668945,1690.536377 1463.668579,1650.244385 
	C1463.668579,1646.658569 1463.668701,1643.072754 1463.668701,1638.365967 
	C1453.548096,1638.365967 1444.413208,1638.365967 1434.817261,1638.365967 
	C1434.817261,1624.701416 1434.817261,1612.195435 1434.817261,1598.580444 
	C1444.130981,1598.580444 1453.274048,1598.580444 1463.352905,1598.580444 
	C1463.352905,1578.685547 1463.352905,1559.855347 1463.352905,1540.327881 
	C1482.374878,1540.327881 1500.452881,1540.327881 1519.499512,1540.327881 
	C1519.499512,1559.362305 1519.499512,1578.190430 1519.499512,1598.246948 
	C1524.624878,1598.246948 1528.837646,1598.246948 1534.022949,1598.247070 
z"/>
<path fill="#6C6F79" opacity="1.000000" stroke="none" 
	d="
M2645.755859,1601.001221 
	C2651.589111,1601.073730 2651.702881,1597.741577 2651.694092,1594.192871 
	C2651.660889,1580.866089 2651.684814,1567.539185 2651.687012,1554.212402 
	C2651.687500,1550.917725 2651.687012,1547.622925 2651.687012,1543.681641 
	C2669.916260,1543.681641 2687.406982,1543.681641 2706.257812,1543.681641 
	C2706.257812,1562.546021 2706.257812,1581.307129 2706.257812,1600.997559 
	C2717.816650,1600.997559 2728.040283,1600.997559 2738.974121,1600.997559 
	C2738.974121,1614.695679 2738.974121,1627.429565 2738.974121,1641.395752 
	C2728.301270,1641.395752 2717.831299,1641.395752 2706.312988,1641.395752 
	C2706.312988,1645.849243 2706.312988,1649.092407 2706.312988,1652.335571 
	C2706.312988,1685.319458 2706.307617,1718.303223 2706.323242,1751.287109 
	C2706.324463,1753.948730 2706.108154,1756.683105 2706.625000,1759.256592 
	C2707.616943,1764.194702 2710.162842,1767.790039 2715.850098,1768.115479 
	C2723.429688,1768.549072 2730.999512,1769.152100 2739.119141,1769.720581 
	C2739.119141,1782.984741 2739.119141,1795.822632 2739.119141,1809.087524 
	C2737.393799,1809.654663 2735.592773,1810.701172 2733.749023,1810.782227 
	C2715.833252,1811.569336 2697.844238,1813.088135 2680.180420,1808.546997 
	C2660.425781,1803.468262 2651.721436,1792.220947 2651.699707,1772.052612 
	C2651.657471,1732.738525 2651.687012,1693.424438 2651.687012,1654.110352 
	C2651.687012,1650.485352 2651.687012,1646.860352 2651.687012,1641.961426 
	C2642.024170,1641.961426 2632.931396,1641.961426 2622.455078,1641.961426 
	C2622.178467,1627.948364 2622.272705,1615.178467 2622.402832,1601.016724 
	C2630.324219,1601.016724 2637.560303,1601.016724 2645.755859,1601.001221 
z"/>
<path fill="#01B2C0" opacity="1.000000" stroke="none" 
	d="
M2083.687500,1760.000000 
	C2083.687256,1776.272827 2083.687256,1791.545654 2083.687256,1807.540894 
	C2064.895752,1807.540894 2046.822998,1807.540894 2028.213867,1807.540894 
	C2028.213867,1712.815674 2028.213867,1618.312012 2028.213867,1522.538696 
	C2037.325073,1522.445068 2046.506714,1522.314575 2055.688965,1522.266479 
	C2064.657227,1522.219360 2073.626221,1522.256226 2081.988525,1522.256226 
	C2082.845459,1522.956543 2083.131104,1523.141968 2083.353271,1523.385620 
	C2083.563721,1523.616455 2083.806641,1523.889282 2083.861572,1524.176880 
	C2084.048340,1525.152222 2084.279053,1526.142212 2084.279541,1527.126709 
	C2084.307373,1584.771973 2084.314209,1642.417114 2084.321777,1700.062378 
	C2084.322266,1703.061279 2084.380371,1706.062012 2084.293457,1709.058472 
	C2084.139404,1714.377930 2083.758789,1719.693481 2083.715576,1725.012695 
	C2083.623779,1736.341187 2083.687500,1747.670776 2083.687500,1760.000000 
z"/>
<path fill="#02B3C1" opacity="1.000000" stroke="none" 
	d="
M1349.693604,1736.000000 
	C1349.693604,1760.266602 1349.693604,1783.533203 1349.693604,1807.534790 
	C1330.561035,1807.534790 1312.109131,1807.534790 1293.421875,1807.534790 
	C1293.421875,1737.536255 1293.421875,1667.494507 1293.421875,1596.851562 
	C1311.337769,1596.851562 1328.147583,1596.851562 1346.094116,1596.851562 
	C1346.094116,1607.350830 1346.094116,1617.721191 1346.094116,1628.091553 
	C1346.703613,1628.511475 1347.312988,1628.931274 1347.922485,1629.351074 
	C1362.955566,1603.352661 1383.452026,1587.593384 1414.794067,1592.271484 
	C1416.696289,1598.849976 1417.219849,1634.308105 1415.460205,1649.113037 
	C1406.760010,1649.113037 1397.776978,1647.970459 1389.189331,1649.328125 
	C1363.810425,1653.340576 1352.494995,1665.524170 1350.505737,1691.073608 
	C1349.370972,1705.648560 1349.908936,1720.353516 1349.693604,1736.000000 
z"/>
<path fill="#6C6F79" opacity="1.000000" stroke="none" 
	d="
M3023.706543,1773.996338 
	C3023.706543,1785.586304 3023.706543,1796.177124 3023.706543,1807.427002 
	C3004.847900,1807.427002 2986.781494,1807.427002 2968.198242,1807.427002 
	C2968.198242,1738.305298 2968.198242,1669.533325 2968.198242,1600.782471 
	C2975.113037,1598.623901 3008.416504,1598.178467 3020.411133,1600.261719 
	C3020.411133,1609.814819 3020.411133,1619.574829 3020.411133,1629.334839 
	C3021.095947,1629.686401 3021.780762,1630.038086 3022.465820,1630.389771 
	C3031.189453,1617.382080 3039.902588,1604.180786 3055.355469,1598.895752 
	C3062.212158,1596.550781 3069.521973,1595.391724 3076.711426,1594.215576 
	C3080.483154,1593.598633 3084.439453,1594.107056 3089.002197,1594.107056 
	C3089.002197,1613.641968 3089.002197,1631.774902 3089.002197,1651.345703 
	C3085.817871,1651.345703 3082.557861,1651.807251 3079.477295,1651.260498 
	C3069.721436,1649.528687 3060.365723,1651.255005 3051.145752,1654.077271 
	C3037.506348,1658.252563 3029.369629,1667.884277 3026.161133,1681.414795 
	C3024.569824,1688.125488 3023.893555,1695.184814 3023.812744,1702.098145 
	C3023.536133,1725.728394 3023.706787,1749.363647 3023.706543,1773.996338 
z"/>
<path fill="#05B3C1" opacity="1.000000" stroke="none" 
	d="
M1192.293457,1642.000000 
	C1192.293457,1626.435181 1192.293457,1611.870361 1192.293457,1596.780396 
	C1211.576904,1596.780396 1229.787598,1596.780396 1248.030273,1596.780396 
	C1250.139038,1603.561890 1250.979736,1788.895508 1248.875977,1807.572266 
	C1230.519897,1807.572266 1212.065308,1807.572266 1192.293335,1807.572266 
	C1192.293335,1752.700928 1192.293335,1697.850464 1192.293457,1642.000000 
z"/>
<path fill="#07B3C1" opacity="1.000000" stroke="none" 
	d="
M1235.828979,1572.295166 
	C1220.967163,1572.295166 1207.085815,1572.295166 1192.761230,1572.295166 
	C1192.761230,1554.602905 1192.761230,1538.098389 1192.761230,1520.910645 
	C1211.532837,1520.910645 1229.973145,1520.910645 1249.067627,1520.910645 
	C1249.067627,1537.580322 1249.067627,1554.075806 1249.067627,1571.948853 
	C1245.119141,1572.060303 1240.964355,1572.177734 1235.828979,1572.295166 
z"/>
<path fill="#07B3C1" opacity="1.000000" stroke="none" 
	d="
M2433.618164,1148.653809 
	C2434.245361,1149.113525 2434.456787,1150.115967 2435.040527,1151.479736 
	C2432.986572,1157.135986 2430.560059,1162.430786 2428.133789,1167.725586 
	C2427.552002,1167.503784 2426.970215,1167.282104 2426.388428,1167.060425 
	C2428.659668,1161.105713 2430.930908,1155.151001 2433.618164,1148.653809 
z"/>
<path fill="#FAFEFE" opacity="1.000000" stroke="none" 
	d="
M1888.941650,1718.476562 
	C1903.279175,1715.354492 1916.810059,1712.448608 1931.147705,1709.369507 
	C1932.545044,1723.999023 1932.577393,1739.372803 1924.851685,1753.432251 
	C1917.872925,1766.132446 1905.098511,1770.549438 1891.884766,1773.459595 
	C1888.049194,1774.304443 1883.920410,1774.366211 1879.978271,1774.076294 
	C1867.383057,1773.149902 1858.732910,1766.033081 1856.589600,1754.808350 
	C1854.272461,1742.672607 1858.174927,1729.890381 1870.255005,1724.648926 
	C1875.995605,1722.157959 1882.161621,1720.647583 1888.941650,1718.476562 
z"/>
<path fill="#FDFDFD" opacity="1.000000" stroke="none" 
	d="
M2488.266602,1765.342285 
	C2477.058350,1742.754639 2486.818115,1726.993408 2504.641602,1722.280884 
	C2510.733887,1720.669922 2516.942383,1719.501099 2523.081543,1718.061279 
	C2533.686768,1715.574097 2544.279297,1713.032593 2555.835205,1710.286255 
	C2556.684570,1725.798950 2558.343262,1742.033325 2548.570557,1756.233643 
	C2540.534180,1767.910522 2528.168457,1772.837524 2514.376709,1774.031494 
	C2504.833740,1774.857666 2495.681641,1773.781250 2488.266602,1765.342285 
z"/>
<path fill="#FDFDFD" opacity="1.000000" stroke="none" 
	d="
M2811.245117,1665.744629 
	C2824.859375,1638.186890 2853.690186,1631.250854 2875.814941,1649.752563 
	C2885.568604,1657.908936 2889.157959,1668.907837 2889.977051,1681.678711 
	C2862.570557,1681.678711 2835.772949,1681.678711 2808.530273,1681.678711 
	C2806.473145,1676.028809 2809.754395,1671.364502 2811.245117,1665.744629 
z"/>
</svg>